<?xml version="1.0" standalone="no"?>
<!DOCTYPE svg PUBLIC "-//W3C//DTD SVG 20010904//EN"
 "http://www.w3.org/TR/2001/REC-SVG-20010904/DTD/svg10.dtd">
<svg version="1.0" xmlns="http://www.w3.org/2000/svg"
 width="300.000000pt" height="169.000000pt" viewBox="0 0 300.000000 169.000000"
 preserveAspectRatio="xMidYMid meet">
<metadata>
Created by potrace 1.10, written by Peter Selinger 2001-2011
</metadata>
<g transform="translate(0.000000,169.000000) scale(0.100000,-0.100000)"
fill="#FFFFFF" stroke="none">
<path d="M1510 1360 c0 -3 10 -29 22 -57 l23 -53 168 0 c181 0 221 -8 251 -51
20 -29 21 -91 1 -128 -24 -47 -68 -61 -198 -61 l-116 0 23 -52 23 -53 56 -3
55 -3 88 -124 87 -125 74 0 73 0 -88 123 c-48 67 -91 128 -95 134 -5 8 7 20
38 34 134 63 165 255 57 357 -55 51 -81 56 -320 62 -122 3 -222 3 -222 0z
m448 -51 c142 -47 165 -240 39 -325 -86 -59 -86 -75 -2 -193 36 -49 65 -92 65
-96 0 -3 -11 -5 -25 -5 -17 0 -34 13 -59 48 -20 26 -39 52 -43 57 -5 6 -20 29
-35 52 -35 54 -84 91 -127 95 -19 2 -36 9 -39 16 -3 9 17 12 75 12 129 1 197
45 212 138 11 70 -11 117 -73 158 -26 16 -53 19 -195 22 -112 3 -168 8 -173
15 -14 23 313 28 380 6z"/>
<path d="M230 1198 l0 -163 55 3 55 4 0 99 0 99 105 0 105 0 0 60 0 60 -160 0
-160 0 0 -162z m274 112 c19 -19 -9 -30 -73 -30 -54 0 -74 -4 -94 -20 -24 -19
-26 -29 -29 -98 -3 -69 -5 -77 -23 -77 -19 0 -20 8 -23 113 -2 104 -1 113 17
120 26 9 213 3 225 -8z"/>
<path d="M615 1299 l-1 -61 58 4 c32 2 58 2 58 -1 0 -3 -42 -48 -94 -101 l-95
-95 43 -43 43 -42 96 99 97 100 0 -60 0 -59 60 0 60 0 0 160 0 160 -162 0
-163 0 0 -61z m280 12 c6 -6 9 -59 7 -120 -3 -97 -5 -111 -20 -111 -12 0 -23
15 -32 43 -24 68 -49 63 -143 -29 -64 -62 -81 -73 -92 -64 -19 16 -13 25 68
108 37 39 67 79 67 90 0 20 -38 52 -62 52 -22 0 -41 17 -34 29 9 14 228 15
241 2z"/>
<path d="M1240 1193 c-40 -93 -110 -252 -156 -355 l-82 -188 63 0 62 0 119
280 c108 255 133 304 134 268 1 -7 52 -132 114 -278 l113 -265 65 -3 66 -3
-156 356 -155 355 -57 0 -58 0 -72 -167z m167 115 c15 -19 263 -591 263 -605
0 -7 -8 -13 -19 -13 -13 0 -27 20 -50 70 -17 39 -31 73 -31 76 0 3 -7 20 -15
37 -8 18 -41 93 -72 167 -32 75 -68 148 -81 164 -19 25 -25 28 -46 18 -29 -13
-54 -62 -181 -367 -63 -150 -74 -169 -98 -163 -13 3 -13 8 3 43 11 22 42 94
70 160 28 66 66 154 85 195 19 42 35 80 35 84 0 11 50 116 63 134 5 6 22 12
37 12 15 0 32 -6 37 -12z"/>
<path d="M2325 1341 c-107 -48 -145 -182 -83 -293 37 -66 75 -82 206 -88 l114
-5 30 -34 c27 -30 30 -39 25 -80 -4 -33 -12 -52 -32 -68 -25 -22 -32 -23 -230
-23 l-204 0 31 -50 31 -50 182 0 181 0 45 29 c25 16 56 44 67 63 46 74 37 179
-20 244 -48 55 -81 67 -193 71 -121 4 -131 7 -150 43 -25 48 -19 97 14 131
l29 29 151 0 151 0 25 50 25 50 -177 0 c-151 0 -184 -3 -218 -19z m306 -21 c4
0 6 -6 3 -13 -3 -9 -41 -13 -139 -15 -148 -2 -173 -10 -201 -63 -23 -46 -18
-122 11 -157 34 -41 65 -50 176 -54 87 -3 100 -7 133 -32 69 -52 87 -150 40
-223 -43 -65 -70 -73 -254 -73 -95 0 -161 4 -165 10 -4 6 26 10 82 11 263 3
280 6 313 61 39 64 18 163 -42 202 -15 10 -53 15 -113 17 -49 1 -106 7 -125
14 -84 29 -125 146 -81 233 34 67 57 76 201 83 69 3 131 4 138 2 8 -2 18 -3
23 -3z"/>
<path d="M228 810 l-3 -160 163 0 162 0 0 61 0 60 -102 -2 -103 -2 -3 102 -3
101 -54 0 -54 0 -3 -160z m74 39 c6 -108 17 -119 124 -122 63 -2 79 -5 79 -17
0 -12 -19 -15 -115 -15 l-115 0 -3 118 c-2 95 0 117 11 117 11 0 16 -20 19
-81z"/>
<path d="M820 868 l0 -103 -101 0 -101 0 -1 -57 -2 -58 162 0 163 0 0 160 0
160 -60 0 -60 0 0 -102z m80 -57 c0 -139 8 -130 -115 -126 -124 3 -125 3 -125
25 0 18 7 20 74 20 110 0 124 15 125 138 1 55 3 62 21 62 19 0 20 -7 20 -119z"/>
<path d="M1360 901 c0 -6 -24 -66 -54 -132 l-54 -119 118 0 118 0 -27 58 c-16
31 -41 86 -56 122 -30 69 -45 93 -45 71z m38 -146 c12 -25 22 -50 22 -55 0 -6
-22 -10 -50 -10 -39 0 -50 3 -50 16 0 18 40 94 50 94 3 0 16 -20 28 -45z"/>
<path d="M2220 510 c0 -40 4 -70 10 -70 6 0 10 30 10 70 0 40 -4 70 -10 70 -6
0 -10 -30 -10 -70z"/>
<path d="M257 560 c-6 -17 -27 -106 -27 -114 0 -3 5 -6 10 -6 6 0 10 7 10 15
0 8 5 15 10 15 6 0 13 -7 16 -15 10 -26 25 -16 18 13 -18 72 -32 106 -37 92z"/>
<path d="M1050 505 c0 -37 4 -65 10 -65 6 0 10 12 11 28 l1 27 11 -27 c6 -16
14 -28 19 -28 11 0 10 4 -3 33 -8 18 -8 30 1 46 14 27 -1 51 -31 51 -17 0 -19
-8 -19 -65z"/>
<path d="M2045 549 c-5 -14 0 -28 15 -44 22 -23 22 -63 0 -50 -5 3 -10 1 -10
-4 0 -16 26 -13 40 4 11 13 9 21 -9 46 -22 29 -22 67 -1 54 5 -3 10 -1 10 4 0
20 -39 11 -45 -10z"/>
<path d="M2378 538 c-7 -19 3 -98 11 -98 4 0 7 25 7 55 -1 52 -9 70 -18 43z"/>
<path d="M333 514 c-3 -8 -1 -20 6 -27 14 -14 15 -41 1 -32 -5 3 -10 1 -10 -4
0 -17 30 -13 37 5 3 8 -1 23 -10 31 -15 15 -15 18 1 29 16 13 16 13 -1 14 -10
0 -20 -7 -24 -16z"/>
<path d="M403 515 c-3 -9 2 -24 11 -34 20 -22 20 -28 -1 -34 -14 -4 -12 -5 5
-6 25 -1 30 26 10 48 -10 11 -10 14 0 18 17 7 15 23 -3 23 -9 0 -18 -7 -22
-15z"/>
<path d="M482 488 c2 -36 7 -44 26 -46 20 -3 22 0 20 45 -1 40 -2 42 -5 13 -7
-53 -23 -62 -23 -12 0 23 -5 42 -11 42 -6 0 -9 -17 -7 -42z"/>
<path d="M575 522 c-9 -10 -5 -82 5 -82 6 0 10 16 10 35 0 19 5 35 10 35 6 0
10 4 10 8 0 9 -27 12 -35 4z"/>
<path d="M644 506 c-9 -39 4 -66 32 -66 23 0 25 3 22 42 -2 34 -7 42 -25 44
-17 3 -24 -2 -29 -20z m36 -26 c0 -16 -4 -30 -10 -30 -5 0 -10 14 -10 30 0 17
5 30 10 30 6 0 10 -13 10 -30z"/>
<path d="M742 481 c1 -40 2 -42 5 -11 7 53 23 62 23 12 0 -23 5 -42 11 -42 6
0 9 17 7 43 -3 36 -6 42 -25 43 -21 1 -23 -3 -21 -45z"/>
<path d="M834 516 c-11 -30 0 -71 21 -73 11 -2 14 0 8 3 -15 7 -18 64 -3 64 6
0 10 5 10 10 0 15 -30 12 -36 -4z"/>
<path d="M904 506 c-9 -38 -1 -61 24 -64 15 -2 22 2 22 14 0 13 -3 14 -15 4
-12 -10 -15 -10 -15 4 0 9 7 16 16 16 21 0 14 44 -8 48 -11 2 -19 -5 -24 -22z"/>
<path d="M1152 518 c-13 -13 -15 -37 -6 -62 8 -22 44 -21 43 2 0 10 -3 12 -6
5 -7 -18 -23 -16 -23 2 0 8 7 15 16 15 10 0 14 7 12 22 -4 26 -19 33 -36 16z"/>
<path d="M1234 515 c-3 -7 -4 -26 -2 -42 2 -20 9 -29 26 -31 20 -3 22 1 22 40
0 37 -3 44 -21 45 -11 1 -22 -4 -25 -12z m36 -29 c0 -14 -4 -28 -10 -31 -6 -4
-10 7 -10 24 0 17 5 31 10 31 6 0 10 -11 10 -24z"/>
<path d="M1323 515 c-3 -9 2 -24 12 -34 15 -18 15 -20 -2 -30 -17 -10 -16 -10
5 -11 25 0 30 27 10 49 -10 11 -10 14 0 18 17 7 15 23 -3 23 -9 0 -18 -7 -22
-15z"/>
<path d="M1400 515 c0 -8 6 -24 13 -35 10 -17 9 -22 -3 -30 -13 -8 -12 -10 3
-10 26 0 32 28 12 50 -11 12 -13 20 -7 20 7 0 12 5 12 10 0 6 -7 10 -15 10 -8
0 -15 -7 -15 -15z"/>
<path d="M1470 498 c0 -42 12 -61 36 -56 14 2 20 13 22 46 2 25 -1 42 -7 42
-6 0 -11 -18 -11 -40 0 -22 -4 -40 -10 -40 -5 0 -10 18 -10 40 0 22 -4 40 -10
40 -5 0 -10 -15 -10 -32z"/>
<path d="M1570 485 c0 -27 5 -45 11 -45 7 0 9 11 6 30 -4 16 -2 32 3 35 15 9
12 25 -5 25 -11 0 -15 -12 -15 -45z"/>
<path d="M1647 523 c-4 -3 -7 -24 -7 -45 0 -34 3 -38 25 -38 23 0 25 4 25 45
0 37 -3 45 -18 45 -10 0 -22 -3 -25 -7z m23 -44 c0 -17 -4 -28 -10 -24 -5 3
-10 17 -10 31 0 13 5 24 10 24 6 0 10 -14 10 -31z"/>
<path d="M1730 485 c0 -25 5 -45 10 -45 6 0 10 16 10 35 0 47 18 45 23 -2 3
-35 4 -34 5 10 2 44 0 47 -23 47 -23 0 -25 -4 -25 -45z"/>
<path d="M1824 506 c-8 -33 4 -66 24 -66 12 0 13 3 4 12 -15 15 -16 58 -2 58
6 0 10 5 10 10 0 21 -30 9 -36 -14z"/>
<path d="M1902 513 c-18 -36 3 -81 32 -70 18 7 22 27 6 27 -5 0 -10 -5 -10
-11 0 -5 -4 -7 -10 -4 -17 10 -11 25 10 25 21 0 24 8 14 34 -8 21 -31 20 -42
-1z"/>
<path d="M2134 506 c-9 -37 -1 -61 22 -64 26 -4 37 28 24 64 -12 31 -38 31
-46 0z m36 -20 c0 -14 -4 -28 -10 -31 -6 -4 -10 7 -10 24 0 17 5 31 10 31 6 0
10 -11 10 -24z"/>
<path d="M2282 488 c2 -36 7 -44 26 -46 20 -3 22 0 20 45 l-1 48 -4 -42 c-5
-54 -23 -56 -23 -3 0 22 -5 40 -11 40 -6 0 -9 -17 -7 -42z"/>
<path d="M2500 510 c-16 -30 -5 -70 20 -70 36 0 38 76 2 88 -6 2 -16 -6 -22
-18z m30 -31 c0 -17 -4 -28 -10 -24 -5 3 -10 17 -10 31 0 13 5 24 10 24 6 0
10 -14 10 -31z"/>
<path d="M2592 481 c1 -43 2 -44 5 -8 5 47 23 49 23 2 0 -19 5 -35 11 -35 6 0
9 17 7 43 -3 36 -6 42 -25 43 -21 1 -23 -3 -21 -45z"/>
<path d="M2680 515 c0 -8 6 -24 13 -35 10 -17 9 -22 -3 -30 -13 -8 -12 -10 3
-10 26 0 32 28 12 50 -11 12 -13 20 -7 20 7 0 12 5 12 10 0 6 -7 10 -15 10 -8
0 -15 -7 -15 -15z"/>
<path d="M1670 348 c-6 -24 -15 -59 -21 -78 -13 -51 -11 -60 11 -60 11 0 20 7
20 15 0 9 9 15 25 15 16 0 25 -6 25 -15 0 -9 9 -15 23 -15 l23 0 -21 88 c-20
80 -24 87 -48 90 -23 3 -27 -2 -37 -40z m50 -55 c0 -14 -6 -23 -15 -23 -16 0
-18 12 -8 48 4 18 8 20 14 10 5 -7 9 -23 9 -35z"/>
<path d="M1310 295 c0 -50 4 -85 10 -85 6 0 10 35 10 85 0 50 -4 85 -10 85 -6
0 -10 -35 -10 -85z"/>
<path d="M1547 373 c-13 -22 -10 -163 3 -163 6 0 10 20 10 44 0 26 5 46 13 49
10 4 10 6 0 6 -16 1 -17 51 -2 51 5 0 7 5 4 10 -7 12 -22 13 -28 3z"/>
<path d="M225 285 c0 -48 4 -75 11 -75 6 0 9 12 6 30 -2 17 -1 30 2 30 4 0 12
-13 17 -30 6 -16 15 -30 20 -30 11 0 11 1 -2 38 -8 22 -7 36 1 52 17 31 4 60
-28 60 -27 0 -27 0 -27 -75z m45 35 c0 -10 -5 -22 -10 -25 -13 -8 -24 20 -16
41 8 20 26 9 26 -16z"/>
<path d="M2293 346 c13 -10 17 -28 17 -75 0 -34 4 -61 10 -61 6 0 10 28 10 65
0 37 4 65 10 65 6 0 10 5 10 10 0 6 -17 10 -37 10 -34 -1 -36 -2 -20 -14z"/>
<path d="M1800 330 c-22 -22 -25 -54 -10 -94 8 -21 16 -26 43 -26 44 0 57 15
57 66 0 68 -47 97 -90 54z m50 -56 c0 -32 -4 -44 -12 -42 -14 5 -23 51 -14 74
11 30 26 12 26 -32z"/>
<path d="M1943 343 l-33 -4 0 -65 c0 -57 2 -64 19 -64 17 0 20 8 23 50 4 67
22 69 26 3 3 -45 6 -53 23 -53 17 0 19 7 19 58 0 56 -12 84 -34 80 -6 0 -26
-3 -43 -5z"/>
<path d="M808 324 c-5 -29 4 -114 12 -114 8 0 17 85 12 114 -2 9 -7 16 -12 16
-5 0 -10 -7 -12 -16z"/>
<path d="M1018 324 c-5 -29 4 -114 12 -114 8 0 17 85 12 114 -2 9 -7 16 -12
16 -5 0 -10 -7 -12 -16z"/>
<path d="M306 286 c-10 -41 3 -78 27 -74 11 2 23 10 25 18 4 12 3 13 -10 3
-16 -14 -28 -8 -28 14 0 7 9 13 21 13 29 0 22 44 -7 48 -16 2 -23 -4 -28 -22z"/>
<path d="M380 241 c0 -41 4 -71 10 -71 6 0 10 8 10 19 0 10 9 21 21 24 17 5
20 12 17 49 -3 39 -6 43 -30 46 l-28 3 0 -70z m46 3 c-4 -14 -11 -22 -16 -19
-11 7 -13 58 -3 69 12 11 25 -24 19 -50z"/>
<path d="M460 260 c0 -27 5 -50 10 -50 6 0 10 18 10 40 0 22 5 40 10 40 6 0
10 5 10 10 0 6 -9 10 -20 10 -17 0 -20 -7 -20 -50z"/>
<path d="M520 286 c-13 -35 3 -76 30 -76 12 0 20 7 20 16 0 13 -3 14 -13 5
-15 -12 -27 -5 -27 16 0 7 9 13 21 13 15 0 20 5 17 22 -4 33 -36 35 -48 4z"/>
<path d="M593 295 c-3 -9 2 -24 12 -35 17 -18 12 -46 -6 -35 -5 4 -9 1 -9 -4
0 -18 37 -13 44 6 4 10 -2 25 -15 39 -20 21 -20 23 -2 33 17 10 17 10 0 11
-10 0 -20 -7 -24 -15z"/>
<path d="M654 286 c-11 -44 -1 -71 25 -71 13 0 26 6 29 13 2 6 -1 12 -7 12 -6
0 -11 -5 -11 -11 0 -5 -4 -7 -10 -4 -18 11 -11 35 10 35 11 0 20 4 20 9 0 43
-46 57 -56 17z"/>
<path d="M730 261 c0 -28 5 -51 10 -51 6 0 10 20 10 45 0 25 5 45 10 45 6 0
10 -20 10 -45 0 -25 5 -45 11 -45 6 0 9 19 7 48 -3 43 -5 47 -30 50 -27 3 -28
2 -28 -47z"/>
<path d="M854 285 c-11 -42 3 -75 31 -75 23 0 25 3 25 50 0 47 -2 50 -25 50
-18 0 -26 -7 -31 -25z m44 -29 c-2 -15 -7 -28 -13 -29 -12 -2 -19 38 -10 60 9
25 27 1 23 -31z"/>
<path d="M940 261 c0 -31 4 -51 11 -51 7 0 10 12 7 33 -6 37 0 60 13 51 5 -3
9 -23 9 -45 0 -21 5 -39 11 -39 6 0 9 19 7 48 -3 43 -5 47 -30 50 -27 3 -28 2
-28 -47z"/>
<path d="M1110 290 c-6 -12 -8 -34 -5 -51 5 -23 12 -29 28 -27 11 2 23 10 25
18 4 12 3 13 -10 3 -16 -14 -28 -8 -28 14 0 7 9 13 21 13 15 0 20 5 17 22 -4
30 -34 35 -48 8z"/>
<path d="M1184 289 c13 -19 13 -25 0 -50 -9 -18 -10 -29 -4 -29 6 0 13 7 17
16 6 15 7 15 20 -1 18 -25 26 -13 12 17 -8 19 -8 31 0 47 7 12 8 21 2 21 -5 0
-12 -6 -15 -12 -5 -10 -7 -10 -12 0 -3 6 -12 12 -20 12 -13 0 -13 -3 0 -21z"/>
<path d="M1254 285 c-10 -41 3 -75 29 -75 20 1 21 2 5 14 -10 7 -18 23 -18 36
0 13 8 29 18 36 16 12 15 13 -5 14 -16 0 -25 -8 -29 -25z"/>
<path d="M1354 294 c3 -9 6 -31 6 -50 0 -30 3 -34 25 -34 24 0 25 3 23 53 l-1
52 -6 -45 c-8 -57 -25 -58 -29 -2 -2 23 -8 42 -14 42 -5 0 -7 -7 -4 -16z"/>
<path d="M1433 295 c-3 -9 2 -24 11 -34 20 -22 21 -45 1 -37 -8 3 -15 1 -15
-4 0 -16 40 -11 47 5 3 9 -3 25 -13 36 -18 20 -18 21 1 35 18 14 18 14 -3 14
-13 0 -25 -7 -29 -15z"/>
<path d="M1501 263 c0 -29 3 -53 7 -53 4 0 6 17 4 38 -6 64 -10 69 -11 15z"/>
<path d="M2095 287 c-12 -45 -2 -72 24 -72 13 0 26 6 29 13 2 6 -1 12 -7 12
-6 0 -11 -5 -11 -11 0 -5 -4 -7 -10 -4 -18 11 -11 35 11 35 29 0 22 44 -8 48
-17 2 -24 -3 -28 -21z"/>
<path d="M2170 260 c0 -27 5 -50 10 -50 6 0 10 20 10 45 0 25 5 45 10 45 6 0
10 -20 10 -45 0 -25 5 -45 10 -45 6 0 10 23 10 50 0 49 -1 50 -30 50 -29 0
-30 -1 -30 -50z"/>
<path d="M2350 276 c0 -49 9 -66 35 -66 21 0 23 6 27 50 1 28 0 50 -4 50 -4 0
-8 -19 -10 -42 -2 -24 -7 -43 -13 -43 -5 0 -11 19 -13 43 -4 50 -22 57 -22 8z"/>
<path d="M2440 261 c0 -28 5 -51 10 -51 6 0 8 10 4 24 -7 29 4 69 17 61 5 -4
9 -24 9 -46 0 -21 5 -39 11 -39 6 0 9 19 7 48 -3 43 -5 47 -30 50 -27 3 -28 2
-28 -47z"/>
<path d="M2520 260 c0 -27 5 -50 10 -50 6 0 10 23 10 50 0 28 -4 50 -10 50 -5
0 -10 -22 -10 -50z"/>
<path d="M2560 289 c0 -12 7 -27 17 -34 16 -12 9 -40 -8 -30 -5 4 -9 1 -9 -4
0 -6 9 -11 20 -11 24 0 28 41 5 60 -15 13 -11 35 6 25 5 -4 9 -1 9 4 0 6 -9
11 -20 11 -14 0 -20 -7 -20 -21z"/>
<path d="M2620 260 c0 -27 5 -50 10 -50 6 0 10 23 10 50 0 28 -4 50 -10 50 -5
0 -10 -22 -10 -50z"/>
<path d="M2664 296 c-3 -8 -4 -29 -2 -47 3 -36 30 -51 51 -30 15 15 0 26 -17
12 -11 -9 -15 -8 -19 3 -7 18 1 26 25 26 19 0 22 8 12 34 -8 20 -43 21 -50 2z"/>
</g>
</svg>
