<?xml version="1.0" standalone="no"?>
<!DOCTYPE svg PUBLIC "-//W3C//DTD SVG 20010904//EN"
 "http://www.w3.org/TR/2001/REC-SVG-20010904/DTD/svg10.dtd">
<svg version="1.0" xmlns="http://www.w3.org/2000/svg"
 width="300.000000pt" height="87.000000pt" viewBox="0 0 300.000000 87.000000"
 preserveAspectRatio="xMidYMid meet">
<metadata>
Created by potrace 1.10, written by Peter Selinger 2001-2011
</metadata>
<g transform="translate(0.000000,87.000000) scale(0.100000,-0.100000)"
fill="#FFFFFF" stroke="none">
<path d="M6 854 c-8 -22 -6 -144 4 -174 5 -16 8 8 9 73 l1 97 203 1 c111 1
216 5 232 9 17 4 -76 8 -206 9 -208 1 -238 -1 -243 -15z"/>
<path d="M1022 730 c2 -92 8 -144 16 -152 9 -9 12 20 12 140 0 133 -2 152 -16
152 -14 0 -16 -16 -12 -140z"/>
<path d="M2340 647 c0 -59 4 -97 12 -105 14 -14 543 -18 552 -4 2 4 6 50 7
102 3 92 2 95 -19 98 -21 3 -22 1 -22 -87 l0 -91 -50 0 -50 0 0 40 c0 33 -3
40 -20 40 -17 0 -20 -7 -20 -40 0 -40 0 -40 -40 -40 -34 0 -40 3 -40 20 0 12
-11 32 -25 45 -20 21 -33 25 -87 25 -81 0 -108 -8 -108 -30 0 -16 4 -17 32 -9
77 22 148 4 148 -37 0 -11 -21 -14 -110 -14 l-110 0 0 90 c0 89 0 90 -25 90
-25 0 -25 0 -25 -93z"/>
<path d="M2950 635 c0 -98 1 -105 20 -105 19 0 20 7 20 105 0 98 -1 105 -20
105 -19 0 -20 -7 -20 -105z"/>
<path d="M1355 670 c-55 -21 -108 -39 -117 -39 -10 -1 -18 -8 -18 -17 0 -11 5
-14 18 -9 9 4 44 9 77 12 71 6 131 -12 153 -44 l14 -23 -131 0 c-82 0 -131 -4
-131 -10 0 -7 88 -9 258 -8 l257 3 0 43 c0 51 -19 57 -23 7 l-3 -35 -55 0 -54
0 0 35 c0 19 -4 35 -10 35 -5 0 -10 -16 -10 -35 0 -34 -1 -35 -39 -35 -30 0
-41 5 -46 19 -10 32 -44 54 -103 67 -31 7 -50 13 -41 13 8 1 51 14 95 31 66
24 73 29 44 28 -19 0 -80 -17 -135 -38z"/>
<path d="M2690 679 c0 -15 5 -20 22 -17 34 5 37 38 4 38 -20 0 -26 -5 -26 -21z"/>
<path d="M2760 680 c0 -13 7 -20 20 -20 13 0 20 7 20 20 0 13 -7 20 -20 20
-13 0 -20 -7 -20 -20z"/>
<path d="M1840 615 c0 -34 39 -72 82 -80 20 -4 68 -5 109 -3 l74 3 5 35 c4 27
10 36 28 38 20 3 22 -1 22 -37 0 -34 3 -41 20 -41 18 0 20 7 20 55 l0 55 -47
0 c-58 0 -72 -8 -82 -46 -7 -27 -11 -29 -66 -32 -75 -4 -114 12 -122 49 -7 38
-43 41 -43 4z"/>
<path d="M2258 588 c3 -69 -6 -82 -62 -83 -38 0 -46 -3 -46 -19 0 -16 6 -18
55 -14 78 7 95 25 95 105 0 59 -2 63 -22 63 -21 0 -23 -4 -20 -52z"/>
<path d="M125 445 c-63 -74 -115 -137 -115 -140 0 -3 23 -5 52 -5 47 0 54 3
90 42 22 24 54 62 71 85 18 23 35 43 38 43 4 0 41 -40 83 -90 58 -67 84 -90
102 -90 18 0 41 22 96 89 40 49 76 90 80 90 3 1 37 -36 74 -81 38 -46 73 -86
79 -90 31 -23 55 -6 144 100 49 60 98 115 107 123 15 13 16 12 8 -11 -5 -14
-8 -130 -6 -258 l3 -232 -218 -2 c-152 -1 -198 -3 -153 -8 36 -4 138 -8 228
-9 l162 -1 0 280 0 280 -49 0 c-55 0 -63 -5 -141 -98 -30 -34 -57 -61 -60 -60
-4 2 -40 42 -79 91 -71 85 -96 101 -127 79 -5 -4 -41 -44 -78 -89 -37 -46 -71
-83 -74 -82 -4 0 -40 41 -80 90 -55 66 -80 89 -97 89 -18 0 -52 -32 -140 -135z
m173 98 c2 -7 -1 -13 -7 -13 -6 0 -28 -10 -49 -23 -20 -13 -46 -27 -56 -30
-17 -7 -17 -5 -5 10 40 54 65 74 88 71 13 -2 26 -9 29 -15z m359 2 c2 -9 -116
-80 -123 -73 -1 2 13 23 33 46 27 33 41 42 61 40 14 -2 27 -7 29 -13z m340
-30 c-15 -14 -33 -25 -40 -26 -7 0 -38 -36 -70 -80 -68 -92 -83 -96 -134 -41
-67 72 -106 123 -99 129 8 8 85 -66 86 -82 0 -17 60 -38 80 -29 35 17 122 106
110 114 -21 13 19 40 58 40 l37 -1 -28 -24z m-677 -23 c0 -17 101 -112 119
-112 10 0 40 18 67 40 26 22 50 38 52 36 2 -2 -18 -31 -43 -65 -63 -82 -75
-81 -155 14 -35 41 -67 75 -71 75 -5 0 -9 5 -9 10 0 6 9 10 20 10 11 0 20 -4
20 -8z m-137 -69 c-20 -31 -86 -94 -92 -88 -5 6 22 44 64 89 40 43 56 43 28
-1z"/>
<path d="M2000 490 c0 -13 7 -20 20 -20 13 0 20 7 20 20 0 13 -7 20 -20 20
-13 0 -20 -7 -20 -20z"/>
<path d="M2070 490 c0 -13 7 -20 20 -20 13 0 20 7 20 20 0 13 -7 20 -20 20
-13 0 -20 -7 -20 -20z"/>
<path d="M2610 490 c0 -13 7 -20 20 -20 13 0 20 7 20 20 0 13 -7 20 -20 20
-13 0 -20 -7 -20 -20z"/>
<path d="M2366 433 c-3 -3 -6 -55 -6 -115 0 -105 1 -108 23 -107 12 0 31 -2
42 -6 14 -4 30 1 48 15 22 18 27 29 27 66 0 67 -41 100 -91 74 -17 -10 -19 -7
-19 29 0 38 -10 57 -24 44z m96 -100 c25 -23 24 -78 -3 -97 -39 -27 -69 -3
-69 56 0 52 36 73 72 41z"/>
<path d="M2876 433 c-3 -3 -6 -55 -6 -115 0 -93 2 -108 16 -108 13 0 15 7 10
35 -4 20 -3 35 3 35 5 0 23 -16 40 -35 17 -19 38 -35 48 -35 13 0 7 11 -24 41
-24 22 -43 43 -43 47 0 4 16 18 35 31 34 23 45 41 25 41 -5 0 -25 -13 -43 -30
-19 -16 -37 -30 -40 -30 -3 0 -3 26 0 59 5 53 -4 81 -21 64z"/>
<path d="M1272 318 c-29 -61 -51 -112 -50 -114 2 -1 14 0 28 3 20 3 32 19 56
71 l31 67 31 -66 c24 -52 37 -68 57 -71 14 -3 25 -1 25 3 0 19 -105 219 -115
219 -5 0 -34 -51 -63 -112z"/>
<path d="M2190 401 c0 -16 6 -21 26 -21 33 0 30 33 -4 38 -17 3 -22 -2 -22
-17z"/>
<path d="M1702 393 c2 -9 13 -18 26 -19 16 -3 22 1 22 16 0 15 -7 20 -26 20
-18 0 -25 -5 -22 -17z"/>
<path d="M1792 393 c2 -9 13 -18 26 -19 16 -3 22 1 22 16 0 15 -7 20 -26 20
-18 0 -25 -5 -22 -17z"/>
<path d="M1461 314 c3 -71 7 -88 23 -100 29 -21 66 -18 66 5 0 12 -7 18 -17
17 -15 -1 -19 8 -21 47 -3 42 -1 47 17 47 12 0 21 7 21 15 0 8 -9 15 -20 15
-13 0 -20 7 -20 20 0 15 -7 20 -26 20 l-26 0 3 -86z"/>
<path d="M1580 316 c0 -93 11 -116 56 -116 17 0 24 6 24 19 0 12 -7 18 -17 17
-15 -1 -19 8 -21 47 -3 42 -1 47 17 47 12 0 21 7 21 15 0 8 -9 15 -20 15 -13
0 -20 7 -20 20 0 13 -7 20 -20 20 -18 0 -20 -7 -20 -84z"/>
<path d="M230 350 c0 -27 3 -30 30 -30 27 0 30 3 30 30 0 27 -3 30 -30 30 -27
0 -30 -3 -30 -30z"/>
<path d="M2563 363 c-26 -10 -12 -22 24 -20 33 2 38 -1 41 -20 3 -20 -1 -23
-32 -23 -62 0 -89 -55 -41 -86 16 -10 32 -13 47 -8 13 4 29 7 36 6 9 -2 12 17
12 67 0 59 -3 72 -19 81 -21 10 -47 12 -68 3z m67 -98 c0 -30 -35 -48 -63 -33
-23 12 -18 29 14 45 36 19 49 16 49 -12z"/>
<path d="M2741 361 c-7 -5 -21 -7 -30 -4 -14 4 -16 -5 -13 -71 4 -87 22 -104
22 -22 0 36 5 60 16 70 37 38 64 10 64 -66 0 -41 4 -58 13 -58 20 0 10 131
-11 148 -18 14 -41 15 -61 3z"/>
<path d="M1700 285 c0 -73 1 -75 25 -75 24 0 25 2 25 75 0 73 -1 75 -25 75
-24 0 -25 -2 -25 -75z"/>
<path d="M1798 281 c4 -70 2 -81 -17 -100 -29 -29 -27 -49 4 -43 43 8 55 37
55 134 0 86 -1 88 -23 88 -23 0 -24 -2 -19 -79z"/>
<path d="M1890 342 c0 -15 8 -19 41 -18 25 1 44 -4 46 -11 3 -9 -6 -13 -29
-13 -70 0 -102 -54 -52 -87 20 -13 32 -14 53 -6 15 5 37 6 49 2 21 -8 22 -6
22 56 0 80 -13 95 -81 95 -41 0 -49 -3 -49 -18z m90 -75 c0 -18 -21 -37 -41
-37 -24 0 -33 18 -19 35 15 19 60 20 60 2z"/>
<path d="M2060 285 c0 -73 1 -75 24 -75 23 0 25 4 28 53 3 45 6 52 26 55 14 2
22 10 22 23 0 24 -28 25 -46 2 -13 -17 -13 -17 -14 0 0 10 -8 17 -20 17 -18 0
-20 -7 -20 -75z"/>
<path d="M2190 285 c0 -60 3 -75 15 -75 8 0 18 -1 21 -2 4 -2 7 32 8 75 1 74
0 77 -21 77 -22 0 -23 -4 -23 -75z"/>
</g>
</svg>
