<?xml version="1.0" standalone="no"?>
<!DOCTYPE svg PUBLIC "-//W3C//DTD SVG 20010904//EN"
 "http://www.w3.org/TR/2001/REC-SVG-20010904/DTD/svg10.dtd">
<svg version="1.0" xmlns="http://www.w3.org/2000/svg"
 width="164.000000pt" height="48.000000pt" viewBox="0 0 164.000000 48.000000"
 preserveAspectRatio="xMidYMid meet">
<metadata>
Created by potrace 1.10, written by Peter Selinger 2001-2011
</metadata>
<g transform="translate(0.000000,48.000000) scale(0.100000,-0.100000)"
fill="#FFFFFF" stroke="none">
<path d="M57 445 l-59 -32 99 -56 c105 -60 133 -73 133 -62 0 10 -19 26 -82
69 -32 22 -58 45 -58 51 0 17 41 27 56 14 19 -16 171 -89 185 -89 8 0 9 -3 4
-9 -17 -17 -204 -121 -216 -121 -6 0 -34 13 -61 30 -57 35 -58 35 -58 13 0
-11 16 -25 43 -37 23 -11 49 -23 57 -27 23 -10 82 13 144 56 56 39 76 39 76 2
0 -23 -17 -37 -125 -101 -70 -42 -81 -43 -134 -15 -67 35 -69 15 -3 -24 l61
-38 120 68 121 68 -2 69 -3 69 -118 68 c-65 38 -119 68 -120 68 -1 -1 -28 -16
-60 -34z"/>
<path d="M720 330 c-36 -9 -55 -52 -38 -87 12 -24 19 -28 58 -28 42 0 45 2 48
28 4 31 -13 37 -21 7 -3 -12 -14 -20 -26 -20 -28 0 -45 34 -30 61 9 17 17 20
46 14 25 -4 34 -3 31 6 -6 17 -39 27 -68 19z"/>
<path d="M470 321 c0 -6 19 -11 41 -13 27 -2 46 -9 53 -21 18 -28 -4 -52 -53
-55 -57 -4 -52 -22 7 -22 55 0 82 20 82 62 0 38 -29 58 -83 58 -26 0 -47 -4
-47 -9z"/>
<path d="M620 270 c0 -47 3 -60 15 -60 12 0 15 13 15 60 0 47 -3 60 -15 60
-12 0 -15 -13 -15 -60z"/>
<path d="M820 270 c0 -47 3 -60 15 -60 12 0 15 13 15 60 0 47 -3 60 -15 60
-12 0 -15 -13 -15 -60z"/>
<path d="M915 270 c0 -52 3 -60 19 -60 14 0 17 5 12 25 -6 23 -3 25 24 25 25
0 30 -4 30 -25 0 -16 6 -25 15 -25 12 0 15 13 15 60 0 47 -3 60 -15 60 -9 0
-15 -10 -15 -26 0 -22 -4 -25 -27 -22 -23 2 -27 7 -25 26 2 16 -2 22 -15 22
-15 0 -18 -9 -18 -60z"/>
<path d="M1060 295 c0 -35 0 -35 45 -35 25 0 45 5 45 10 0 6 -13 10 -30 10
-20 0 -30 5 -30 15 0 10 11 15 35 15 19 0 35 5 35 10 0 6 -22 10 -50 10 l-50
0 0 -35z"/>
<path d="M1195 274 c-14 -31 -25 -58 -25 -60 0 -10 29 -3 32 8 6 16 59 17 65
1 5 -11 33 -19 33 -9 0 21 -53 116 -65 116 -9 0 -26 -23 -40 -56z"/>
<path d="M1320 270 l0 -60 45 0 c25 0 45 5 45 10 0 6 -13 10 -30 10 -29 0 -30
1 -30 50 0 38 -4 50 -15 50 -12 0 -15 -13 -15 -60z"/>
<path d="M1400 320 c0 -5 9 -10 20 -10 17 0 20 -7 20 -50 0 -38 4 -50 15 -50
11 0 15 12 15 50 0 43 3 50 20 50 11 0 20 5 20 10 0 6 -25 10 -55 10 -30 0
-55 -4 -55 -10z"/>
<path d="M1524 270 c0 -50 3 -60 16 -60 13 0 16 6 12 25 -4 22 -1 25 27 25 26
0 31 -4 31 -25 0 -16 6 -25 15 -25 12 0 15 13 15 60 0 47 -3 60 -15 60 -9 0
-15 -9 -15 -25 0 -21 -5 -25 -31 -25 -28 0 -31 3 -27 25 4 18 1 25 -11 25 -13
0 -16 -12 -17 -60z"/>
<path d="M1060 220 c0 -5 23 -10 50 -10 28 0 50 5 50 10 0 6 -22 10 -50 10
-27 0 -50 -4 -50 -10z"/>
<path d="M0 90 c0 -6 6 -19 13 -30 10 -17 9 -22 -3 -30 -32 -20 1 -20 40 0
l43 22 -43 24 c-48 27 -50 28 -50 14z"/>
</g>
</svg>
