<?xml version="1.0" standalone="no"?>
<!DOCTYPE svg PUBLIC "-//W3C//DTD SVG 20010904//EN"
 "http://www.w3.org/TR/2001/REC-SVG-20010904/DTD/svg10.dtd">
<svg version="1.0" xmlns="http://www.w3.org/2000/svg"
 width="300.000000pt" height="168.000000pt" viewBox="0 0 300.000000 168.000000"
 preserveAspectRatio="xMidYMid meet">
<metadata>
Created by potrace 1.10, written by Peter Selinger 2001-2011
</metadata>
<g transform="translate(0.000000,168.000000) scale(0.100000,-0.100000)"
fill="#FFFFFF" stroke="none">
<path d="M2190 1628 c-157 -113 -442 -264 -648 -342 -226 -86 -491 -135 -663
-123 l-79 5 0 -134 0 -134 28 0 c20 0 41 14 77 50 27 28 52 49 55 48 3 -2 28
-27 55 -56 l49 -54 -48 -42 -49 -42 -40 43 c-47 51 -84 61 -42 11 15 -18 43
-44 62 -57 l34 -25 62 61 c54 52 68 61 110 67 75 9 233 65 344 122 179 92 334
206 507 374 127 124 264 271 250 269 -5 0 -34 -19 -64 -41z m-240 -231 c-106
-99 -299 -246 -385 -293 -101 -55 -144 -75 -226 -106 -97 -37 -221 -72 -251
-70 -10 0 -34 18 -54 39 -20 21 -33 31 -30 23 4 -8 -1 -5 -10 8 -16 22 -64 31
-64 12 0 -5 -6 -10 -14 -10 -8 0 -16 -7 -20 -15 -9 -24 -50 -36 -57 -16 -10
27 2 151 15 152 6 0 60 2 120 4 105 3 270 27 351 51 131 39 214 65 230 73 11
5 47 19 80 32 33 12 128 57 210 99 83 42 152 75 155 72 3 -2 -20 -27 -50 -55z"/>
<path d="M1822 1089 c-29 -28 -50 -54 -47 -57 3 -3 26 14 51 39 l45 44 38 -44
38 -45 49 42 48 43 53 -53 53 -53 -55 -55 -55 -54 -45 44 -45 44 -45 -44 -45
-44 -48 54 c-26 30 -46 58 -44 63 8 24 -235 -56 -366 -122 -130 -65 -257 -144
-373 -232 -103 -79 -249 -202 -244 -207 1 -2 42 22 89 53 164 107 392 203 596
252 158 37 414 43 560 13 58 -12 125 -30 149 -41 24 -10 44 -19 45 -19 0 0 1
65 1 145 l0 144 -24 6 c-14 4 -52 35 -84 71 l-59 64 -44 -40 c-24 -22 -48 -40
-53 -40 -5 0 -25 18 -45 40 -20 22 -37 40 -38 40 -2 0 -27 -23 -56 -51z m-29
-164 c35 -35 50 -44 75 -42 16 1 28 6 24 11 -3 5 2 7 10 3 10 -3 19 3 27 20
l12 26 23 -22 c12 -11 28 -21 35 -21 7 0 10 -4 7 -8 -2 -4 11 -8 30 -8 19 0
34 3 34 7 0 4 9 11 20 14 11 3 20 13 20 21 0 8 5 14 11 14 7 0 17 8 24 17 10
14 16 15 27 6 13 -11 15 -41 9 -167 -1 -15 -6 -17 -28 -13 -182 38 -231 44
-338 46 -49 1 -133 -3 -185 -8 -103 -11 -316 -61 -386 -91 -75 -32 -58 -4 28
48 117 70 217 119 312 152 147 51 154 51 209 -5z"/>
<path d="M1570 375 c0 -73 -1 -75 -25 -75 -22 0 -25 4 -25 35 0 19 -4 35 -10
35 -5 0 -10 -16 -10 -35 0 -28 -4 -35 -20 -35 -14 0 -20 7 -20 21 0 23 -18 60
-34 71 -24 17 -65 8 -85 -18 -44 -56 -15 -99 60 -92 24 2 38 0 36 -7 -2 -5
-22 -11 -46 -13 -49 -4 -45 -22 5 -22 21 0 42 8 54 20 16 16 33 20 80 20 l60
0 0 85 c0 50 -4 85 -10 85 -6 0 -10 -32 -10 -75z m-140 -14 c5 -11 10 -29 10
-40 0 -17 -6 -21 -34 -21 -64 0 -79 17 -56 61 7 12 21 19 40 19 19 0 33 -7 40
-19z"/>
<path d="M1639 449 c-5 -39 -2 -168 5 -166 9 3 11 155 2 164 -3 4 -6 4 -7 2z"/>
<path d="M2160 380 c0 -68 -1 -70 -25 -70 -21 0 -25 5 -25 29 0 17 -4 33 -10
36 -6 4 -10 -8 -10 -29 0 -32 -3 -36 -25 -36 -22 0 -24 3 -19 29 4 16 1 32 -5
35 -7 5 -11 -9 -11 -44 0 -51 -5 -58 -44 -64 -15 -2 -24 -16 -11 -16 3 0 17 0
31 0 17 0 28 6 31 20 5 18 14 20 74 20 l69 0 0 80 c0 47 -4 80 -10 80 -6 0
-10 -30 -10 -70z"/>
<path d="M2220 370 c0 -47 4 -80 10 -80 6 0 10 33 10 80 0 47 -4 80 -10 80 -6
0 -10 -33 -10 -80z"/>
<path d="M1766 389 c-26 -20 -35 -49 -16 -49 6 0 10 4 10 10 0 5 11 17 25 26
23 15 27 15 51 0 17 -12 24 -25 22 -39 -3 -20 -10 -22 -66 -25 -100 -5 -62
-22 49 -22 l99 0 0 45 c0 25 -4 45 -10 45 -5 0 -10 -16 -10 -35 0 -28 -4 -35
-20 -35 -15 0 -20 7 -20 29 0 32 -39 71 -70 71 -10 0 -29 -9 -44 -21z"/>
<path d="M802 380 c-52 -49 -12 -93 89 -98 88 -5 117 2 121 31 4 21 5 21 18
-5 l13 -28 119 0 118 0 0 45 c0 25 -4 45 -10 45 -5 0 -10 -16 -10 -35 0 -31
-3 -35 -25 -35 -23 0 -25 3 -25 51 0 31 -4 48 -10 44 -5 -3 -10 -26 -10 -51 0
-24 -4 -44 -10 -44 -5 0 -10 23 -10 51 0 31 -4 48 -10 44 -5 -3 -10 -27 -10
-51 0 -32 -4 -44 -12 -41 -8 2 -12 21 -11 50 1 36 -2 44 -13 40 -9 -3 -14 -21
-14 -49 0 -38 -3 -44 -20 -44 -11 0 -24 8 -27 18 -4 9 -11 20 -17 24 -17 12
-138 10 -131 -2 3 -5 24 -10 46 -10 29 0 39 -4 39 -16 0 -15 -10 -16 -82 -10
-93 8 -117 21 -99 55 7 11 21 21 32 21 11 0 17 5 14 10 -10 16 -29 12 -53 -10z"/>
<path d="M1905 271 c-11 -11 -3 -18 20 -18 14 0 25 5 25 11 0 11 -36 17 -45 7z"/>
<path d="M770 110 c0 -60 0 -60 30 -60 20 0 30 5 30 15 0 8 -9 15 -20 15 -17
0 -20 7 -20 45 0 25 -4 45 -10 45 -6 0 -10 -27 -10 -60z"/>
<path d="M861 126 c-6 -25 -11 -53 -11 -63 0 -15 3 -14 19 6 19 24 41 22 41
-5 0 -8 5 -14 10 -14 13 0 12 16 -4 70 -18 61 -40 64 -55 6z"/>
<path d="M980 110 c0 -33 4 -60 10 -60 6 0 10 9 10 20 0 13 10 24 25 30 29 11
35 54 9 64 -45 17 -54 9 -54 -54z m48 23 c-5 -25 -28 -28 -28 -4 0 12 6 21 16
21 9 0 14 -7 12 -17z"/>
<path d="M1083 158 c-30 -38 -20 -91 18 -103 45 -15 79 64 43 99 -19 19 -48
21 -61 4z m53 -34 c7 -28 -16 -61 -35 -50 -12 8 -15 59 -4 69 14 15 33 6 39
-19z"/>
<path d="M1181 156 c-15 -18 -4 -44 20 -51 27 -9 18 -31 -10 -27 -27 3 -24
-21 3 -26 41 -8 63 48 26 68 -11 6 -20 15 -20 20 0 6 9 10 20 10 11 0 20 5 20
10 0 15 -46 12 -59 -4z"/>
<path d="M1250 160 c0 -5 7 -10 15 -10 11 0 15 -12 15 -50 0 -27 5 -50 10 -50
6 0 10 23 10 50 0 38 4 50 15 50 8 0 15 5 15 10 0 6 -18 10 -40 10 -22 0 -40
-4 -40 -10z"/>
<path d="M1340 110 c0 -60 0 -60 29 -60 36 0 51 17 19 22 -28 4 -36 28 -9 28
12 0 21 5 21 10 0 6 -9 10 -20 10 -11 0 -20 7 -20 15 0 8 9 15 20 15 11 0 20
5 20 10 0 6 -13 10 -30 10 -30 0 -30 0 -30 -60z"/>
<path d="M1440 160 c0 -5 7 -10 15 -10 11 0 15 -12 15 -50 0 -27 5 -50 10 -50
6 0 10 23 10 50 0 38 4 50 15 50 8 0 15 5 15 10 0 6 -18 10 -40 10 -22 0 -40
-4 -40 -10z"/>
<path d="M1532 119 c3 -59 25 -82 56 -63 19 12 31 114 13 114 -5 0 -11 -21
-13 -47 -2 -35 -7 -48 -18 -48 -11 0 -16 13 -18 48 -2 26 -8 47 -13 47 -6 0
-9 -22 -7 -51z"/>
<path d="M1630 110 c0 -68 17 -82 22 -17 l3 42 20 -40 c11 -22 25 -39 30 -38
13 4 19 113 6 113 -5 0 -11 -17 -13 -37 l-3 -38 -17 38 c-27 59 -48 49 -48
-23z"/>
<path d="M1740 110 c0 -33 4 -60 10 -60 6 0 10 27 10 60 0 33 -4 60 -10 60 -6
0 -10 -27 -10 -60z"/>
<path d="M1787 163 c-14 -13 -6 -43 13 -55 11 -7 20 -19 20 -27 0 -8 -7 -11
-20 -8 -11 3 -20 1 -20 -3 0 -15 19 -22 40 -15 27 8 26 51 0 65 -11 6 -20 15
-20 20 0 6 9 10 20 10 11 0 20 5 20 10 0 11 -43 14 -53 3z"/>
<path d="M1860 110 c0 -33 4 -60 10 -60 6 0 10 27 10 60 0 33 -4 60 -10 60 -6
0 -10 -27 -10 -60z"/>
<path d="M1909 127 c-6 -66 -1 -77 32 -77 16 0 29 5 29 10 0 6 -9 10 -20 10
-11 0 -20 7 -20 15 0 8 7 15 15 15 8 0 15 5 15 10 0 6 -7 10 -15 10 -8 0 -15
7 -15 15 0 8 9 15 20 15 11 0 20 5 20 10 0 6 -13 10 -29 10 -27 0 -29 -3 -32
-43z"/>
<path d="M1990 109 c0 -41 3 -58 11 -53 6 3 9 19 7 35 -6 39 5 36 25 -6 25
-52 37 -43 37 25 0 64 -19 85 -21 23 l-1 -38 -16 37 c-26 58 -42 49 -42 -23z"/>
<path d="M2090 110 c0 -33 4 -60 10 -60 6 0 10 19 11 43 l0 42 22 -42 c11 -24
25 -43 29 -43 4 0 8 27 8 60 0 33 -4 60 -9 60 -6 0 -7 -16 -4 -37 7 -43 -8
-39 -27 7 -21 52 -40 38 -40 -30z"/>
<path d="M2200 120 c0 -27 -1 -53 -2 -57 -2 -5 12 -9 30 -11 18 -2 32 1 32 7
0 6 -9 11 -20 11 -27 0 -25 26 3 35 l22 8 -22 4 c-28 5 -30 33 -3 33 11 0 20
5 20 10 0 6 -13 10 -30 10 -29 0 -30 -1 -30 -50z"/>
</g>
</svg>
