<?xml version="1.0" standalone="no"?>
<!DOCTYPE svg PUBLIC "-//W3C//DTD SVG 20010904//EN"
 "http://www.w3.org/TR/2001/REC-SVG-20010904/DTD/svg10.dtd">
<svg version="1.0" xmlns="http://www.w3.org/2000/svg"
 width="300.000000pt" height="169.000000pt" viewBox="0 0 300.000000 169.000000"
 preserveAspectRatio="xMidYMid meet">
<metadata>
Created by potrace 1.10, written by Peter Selinger 2001-2011
</metadata>
<g transform="translate(0.000000,169.000000) scale(0.100000,-0.100000)"
fill="#FFFFFF" stroke="none">
<path d="M2647 1272 c-22 -24 -21 -35 3 -57 15 -13 20 -31 20 -67 0 -26 -2
-48 -5 -48 -3 0 -22 7 -42 15 -88 37 -221 4 -276 -69 -30 -38 -57 -100 -58
-130 -1 -52 -16 22 -18 89 -1 61 -5 73 -27 93 -27 24 -67 28 -109 12 -19 -7
-34 -6 -55 5 -16 8 -52 15 -80 15 -110 0 -185 -75 -215 -213 l-13 -62 -1 51
c-1 67 -25 145 -53 171 -59 53 -126 66 -198 37 -31 -13 -46 -14 -71 -5 -48 16
-83 13 -113 -10 l-26 -20 0 -228 c0 -264 -1 -261 88 -261 86 0 92 11 92 185 0
132 2 147 20 165 27 27 57 26 66 -2 5 -13 8 -87 9 -165 1 -172 7 -183 91 -183
81 0 92 17 96 155 l3 80 19 -63 c12 -41 32 -78 58 -107 38 -44 38 -52 -3 -47
-4 1 -17 -10 -29 -23 -21 -23 -22 -28 -11 -64 13 -47 65 -93 120 -110 101 -30
249 1 295 62 35 47 44 89 50 221 3 65 8 121 11 124 3 3 5 -8 5 -24 0 -16 15
-56 33 -89 57 -103 154 -149 262 -125 59 13 77 23 126 67 48 43 50 72 9 106
-35 30 -37 37 -11 37 11 0 29 12 41 28 19 23 21 35 16 87 -3 33 -16 80 -29
105 l-22 45 31 28 c30 26 32 26 48 8 14 -15 32 -19 94 -19 119 0 112 -6 112
108 0 80 -3 99 -16 104 -28 11 -61 6 -74 -9 -11 -13 -16 -14 -34 -2 -14 9 -55
15 -117 16 -82 1 -98 -1 -112 -17z m143 -27 c0 -9 -9 -15 -25 -15 -24 0 -25
-2 -25 -70 0 -65 -2 -70 -21 -70 -20 0 -21 4 -17 70 l4 70 -28 0 c-18 0 -28 5
-28 15 0 12 14 15 70 15 56 0 70 -3 70 -15z m86 -43 c7 -30 14 -56 17 -58 2
-2 10 23 17 56 12 56 14 60 41 60 l29 0 0 -85 c0 -78 -2 -85 -20 -85 -18 0
-19 5 -13 68 7 80 -1 78 -20 -4 -10 -45 -18 -60 -33 -62 -16 -2 -22 8 -35 65
l-16 68 -2 -67 c-1 -53 -4 -68 -16 -68 -12 0 -15 16 -15 86 l0 85 27 -3 c24
-3 29 -9 39 -56z m-1201 -126 c52 -34 60 -65 63 -268 l4 -188 -64 0 -63 0 3
149 c4 189 -6 221 -68 221 -30 0 -47 -6 -65 -25 -24 -24 -25 -28 -25 -185 l0
-160 -60 0 -60 0 0 235 0 235 61 0 61 0 -7 -32 -7 -33 29 28 c17 15 43 32 59
37 40 13 109 6 139 -14z m426 -14 l29 -32 0 30 c0 30 0 30 55 30 l55 0 0 -263
c0 -253 -1 -264 -22 -307 -32 -61 -80 -84 -183 -88 -68 -3 -87 0 -125 20 -43
22 -75 62 -82 102 -3 18 3 19 58 19 49 -1 66 -5 83 -22 24 -24 96 -29 125 -8
17 13 35 71 36 116 0 23 -1 23 -37 -9 -34 -30 -40 -32 -98 -28 -117 7 -178 87
-179 233 0 119 45 206 124 238 8 4 42 5 74 3 52 -2 62 -6 87 -34z m516 23 c75
-32 111 -90 120 -196 l6 -69 -152 0 c-97 0 -151 -4 -151 -10 0 -24 30 -79 48
-89 43 -23 101 -9 133 31 16 20 16 20 60 -8 24 -15 46 -30 48 -31 3 -2 -11
-19 -29 -38 -35 -36 -121 -75 -167 -75 -84 0 -168 63 -197 147 -22 65 -20 177
4 231 22 48 61 88 105 108 41 18 128 17 172 -1z m-23 -310 c-1 -5 -13 -16 -27
-23 -30 -15 -77 -1 -77 23 0 13 10 15 53 13 28 -2 51 -7 51 -13z m-524 -194
c0 -16 -20 -23 -46 -17 -35 9 -30 22 11 24 19 2 35 -2 35 -7z"/>
<path d="M1982 983 c-44 -18 -61 -154 -26 -214 37 -63 121 -60 153 6 31 64 9
192 -34 209 -19 7 -74 7 -93 -1z m88 -43 c25 -25 28 -124 4 -158 -19 -28 -58
-28 -85 -1 -18 18 -21 30 -17 84 2 35 10 70 17 79 18 22 57 20 81 -4z"/>
<path d="M2494 991 c-24 -11 -54 -48 -54 -68 0 -10 24 -13 90 -13 82 0 90 2
90 19 0 48 -74 84 -126 62z"/>
<path d="M155 1118 c-50 -17 -94 -56 -126 -111 -29 -51 -30 -55 -27 -163 3
-108 4 -113 37 -161 64 -94 172 -132 285 -99 70 21 115 59 149 130 22 45 27
69 27 130 0 133 -55 229 -156 271 -41 17 -144 19 -189 3z m183 -33 c47 -20 79
-50 105 -100 18 -32 22 -57 22 -130 0 -116 -26 -174 -100 -220 -42 -26 -57
-30 -119 -29 -45 0 -82 6 -102 17 -162 85 -163 376 -3 455 53 26 142 29 197 7z"/>
<path d="M211 989 c-50 -20 -77 -91 -66 -172 10 -68 47 -107 102 -107 47 1 68
16 88 63 28 67 13 175 -28 201 -32 21 -68 27 -96 15z m89 -61 c37 -61 20 -157
-30 -178 -17 -7 -36 -10 -44 -7 -29 11 -48 56 -48 112 0 73 20 105 67 105 29
0 39 -6 55 -32z"/>
<path d="M720 1111 c-31 -16 -38 -17 -69 -4 -39 17 -86 11 -113 -14 -16 -15
-18 -36 -18 -243 0 -264 -2 -260 92 -260 83 0 88 9 88 169 0 127 1 133 25 156
13 14 35 25 48 25 25 0 67 33 67 53 0 6 10 2 23 -11 12 -12 33 -30 46 -40 l24
-19 -41 -29 c-57 -40 -86 -100 -80 -165 6 -56 28 -93 78 -127 48 -32 77 -37
134 -23 28 7 90 12 137 11 120 -2 119 -5 119 215 0 157 -2 174 -22 215 -14 26
-41 57 -66 75 -41 28 -50 30 -130 30 -100 0 -152 -21 -196 -77 l-26 -33 0 36
c0 24 -7 42 -23 57 -28 27 -52 28 -97 3z m90 -76 l0 -65 -41 0 c-31 0 -47 -6
-70 -29 l-29 -29 0 -146 0 -146 -60 0 -60 0 0 235 0 235 55 0 55 0 0 -42 0
-43 19 29 c25 37 69 66 104 66 27 0 27 -1 27 -65z m350 43 c81 -42 85 -53 88
-269 l3 -189 -66 0 c-67 0 -67 0 -61 25 8 31 3 31 -27 1 -14 -14 -43 -30 -65
-37 -172 -51 -270 184 -111 266 14 8 57 19 95 26 86 14 104 24 104 52 0 34
-19 47 -66 47 -34 0 -47 -5 -66 -28 l-23 -29 -47 30 c-54 32 -53 48 2 87 65
46 169 54 240 18z m-92 -125 c2 -9 -8 -13 -35 -13 -36 1 -37 1 -18 16 22 17
46 15 53 -3z"/>
<path d="M1085 835 c-16 -8 -40 -14 -51 -15 -31 0 -74 -38 -74 -64 0 -59 82
-76 131 -27 24 24 29 38 29 75 0 25 -1 46 -2 45 -2 0 -16 -7 -33 -14z m-5 -57
c0 -22 -14 -36 -43 -43 -35 -9 -50 21 -22 41 24 17 65 18 65 2z"/>
</g>
</svg>
