<?xml version="1.0" standalone="no"?>
<!DOCTYPE svg PUBLIC "-//W3C//DTD SVG 20010904//EN"
 "http://www.w3.org/TR/2001/REC-SVG-20010904/DTD/svg10.dtd">
<svg version="1.0" xmlns="http://www.w3.org/2000/svg"
 width="300.000000pt" height="300.000000pt" viewBox="0 0 300.000000 300.000000"
 preserveAspectRatio="xMidYMid meet">
<metadata>
Created by potrace 1.10, written by Peter Selinger 2001-2011
</metadata>
<g transform="translate(0.000000,300.000000) scale(0.100000,-0.100000)"
fill="#FFFFFF" stroke="none">
<path d="M446 1903 c-21 -93 -43 -195 -51 -228 l-13 -60 47 -41 46 -42 5 217
5 216 18 -40 18 -40 -6 35 c-4 19 -10 59 -14 87 -4 29 -10 55 -13 58 -2 3 -22
-70 -42 -162z m10 -199 c-4 -87 -11 -109 -25 -85 -9 15 -3 88 10 113 5 9 9 26
9 37 0 12 2 21 5 21 2 0 3 -39 1 -86z"/>
<path d="M1055 1905 c-22 -8 -53 -28 -68 -46 -24 -26 -28 -37 -23 -63 9 -43
36 -66 145 -128 52 -29 103 -65 114 -80 41 -56 -7 -108 -100 -108 -57 0 -105
26 -128 70 -21 41 -35 38 -28 -7 7 -46 22 -59 92 -80 128 -37 251 20 251 118
0 42 -52 92 -144 137 -117 59 -152 105 -111 146 43 42 138 26 192 -33 27 -30
33 -33 33 -16 0 44 -13 64 -50 79 -59 23 -129 28 -175 11z"/>
<path d="M1340 1855 c0 -61 12 -72 26 -22 10 32 11 32 77 35 l67 3 0 -174 c0
-156 -2 -176 -18 -190 -10 -10 -26 -17 -35 -17 -9 0 -17 -4 -17 -10 0 -11 192
-14 204 -3 3 4 -8 12 -26 17 l-33 11 -3 183 -2 182 64 0 64 0 12 -35 c17 -51
30 -43 30 20 l0 55 -205 0 -205 0 0 -55z"/>
<path d="M1844 1708 c-85 -188 -93 -204 -123 -213 -53 -16 -35 -25 49 -25 47
0 80 4 80 10 0 6 -6 10 -14 10 -32 0 -33 25 -5 88 l29 62 90 0 91 0 29 -66
c17 -36 27 -70 24 -75 -3 -5 -16 -9 -30 -9 -13 0 -24 -4 -24 -10 0 -6 40 -10
100 -10 103 0 122 7 70 27 -16 6 -34 22 -39 35 -5 12 -34 75 -63 138 -30 63
-67 143 -83 178 -26 57 -30 62 -59 62 -32 0 -32 -1 -122 -202z m122 100 c4
-13 17 -45 30 -72 13 -28 24 -53 24 -58 0 -4 -32 -8 -71 -8 -81 0 -78 -9 -31
97 15 34 30 63 34 63 4 0 10 -10 14 -22z"/>
<path d="M2332 1903 c-51 -3 -72 -8 -69 -16 2 -7 17 -14 33 -17 l29 -5 3 -183
c2 -177 2 -184 -18 -189 -47 -12 -14 -23 70 -23 53 0 90 4 90 10 0 6 -8 10
-17 10 -44 1 -46 9 -47 204 l-1 186 48 0 c89 0 147 -42 147 -105 0 -57 -55
-104 -126 -107 -19 -1 -37 -5 -40 -9 -5 -9 149 -139 191 -161 35 -19 139 -28
143 -13 2 5 -11 13 -28 16 -17 4 -64 34 -106 68 -41 34 -81 64 -89 68 -24 9
-17 20 16 27 87 17 138 72 124 136 -7 34 -49 74 -94 88 -40 14 -159 21 -259
15z"/>
<path d="M545 1576 c-27 -25 -45 -45 -39 -46 7 0 47 7 90 15 44 8 106 17 139
20 l60 5 -64 -35 c-104 -56 -95 -61 14 -8 55 26 102 49 104 50 11 7 -13 12
-109 22 -58 6 -114 13 -125 16 -14 4 -34 -7 -70 -39z"/>
<path d="M110 1587 c0 -3 30 -19 67 -37 37 -17 89 -44 116 -61 45 -27 50 -29
75 -15 15 8 42 20 60 28 29 12 43 28 25 28 -34 1 -121 13 -133 17 -8 4 -44 12
-80 19 -36 8 -80 16 -97 20 -18 4 -33 4 -33 1z"/>
<path d="M403 1413 c-75 -104 -114 -147 -99 -108 7 17 36 115 36 123 0 1 -5 2
-12 2 -6 0 -9 -2 -6 -5 5 -5 -29 -133 -47 -178 -4 -10 41 19 101 64 60 45 110
83 111 83 0 1 -2 27 -5 60 l-7 58 -72 -99z"/>
<path d="M506 1499 c4 -8 39 -57 76 -109 37 -52 68 -99 68 -106 0 -12 38 -50
44 -43 2 2 -13 53 -33 113 -35 106 -38 110 -76 126 -69 29 -89 34 -79 19z"/>
<path d="M500 1386 c0 -6 129 -96 137 -96 3 0 -16 17 -43 39 -49 38 -94 66
-94 57z"/>
<path d="M2062 1323 l3 -48 258 -5 c141 -3 262 -3 267 -2 17 6 11 52 -7 59
-11 4 -23 -3 -37 -20 -26 -32 -36 -34 -36 -7 0 11 -4 20 -10 20 -5 0 -10 -9
-10 -20 0 -12 -7 -20 -16 -20 -9 0 -18 9 -21 20 -7 25 -25 27 -21 3 3 -17 -12
-18 -174 -21 l-178 -2 0 45 c0 25 -5 45 -11 45 -6 0 -9 -19 -7 -47z"/>
<path d="M2625 1323 c4 -27 8 -49 8 -50 1 -1 31 -3 67 -4 61 -3 65 -1 68 20 2
13 -1 28 -7 34 -8 8 -11 3 -11 -17 0 -26 -1 -27 -52 -24 l-53 3 -3 43 c-2 23
-8 42 -14 42 -7 0 -8 -16 -3 -47z"/>
<path d="M978 1310 c-18 -55 -15 -61 13 -27 l19 22 6 -22 c3 -13 10 -23 15
-23 12 0 12 -2 -7 53 -9 26 -19 47 -23 47 -4 0 -14 -22 -23 -50z"/>
<path d="M1059 1344 c-11 -14 -10 -18 6 -30 10 -8 25 -14 32 -14 7 0 13 -5 13
-11 0 -6 -11 -9 -25 -7 -13 2 -24 -1 -25 -7 0 -5 12 -10 28 -10 20 0 28 5 30
22 3 17 -3 24 -22 29 -33 8 -34 28 -1 22 28 -6 34 6 9 16 -24 9 -30 8 -45 -10z"/>
<path d="M1153 1353 c-21 -8 -15 -33 12 -45 33 -15 32 -32 0 -25 -16 3 -24 0
-22 -7 2 -6 17 -11 33 -11 22 0 30 5 32 22 3 17 -3 24 -22 29 -14 3 -26 11
-26 16 0 6 9 8 21 5 13 -3 19 -1 16 6 -4 13 -26 18 -44 10z"/>
<path d="M1230 1323 c0 -43 19 -69 45 -59 11 4 15 19 13 53 l-1 48 -4 -43 c-3
-34 -8 -43 -21 -40 -12 2 -17 14 -18 35 0 48 -14 53 -14 6z"/>
<path d="M1312 1311 c-1 -28 3 -51 9 -51 5 0 9 9 9 19 0 31 19 35 30 7 14 -37
18 -32 16 22 -1 45 -2 47 -33 50 l-31 3 0 -50z"/>
<path d="M1425 1344 c-4 -10 -11 -29 -16 -42 -15 -37 -10 -49 10 -23 l19 24
12 -22 c18 -34 24 -18 10 26 -16 49 -28 62 -35 37z"/>
<path d="M1491 1308 c1 -29 4 -41 6 -25 5 34 16 35 32 1 15 -34 22 -26 26 30
3 49 -11 64 -17 19 l-4 -28 -14 28 c-20 41 -30 33 -29 -25z"/>
<path d="M1591 1346 c-17 -20 -10 -67 11 -80 14 -8 22 -7 35 7 17 18 17 18 -9
12 -21 -5 -27 -3 -33 14 -9 29 3 44 31 37 27 -7 33 8 8 18 -23 9 -30 8 -43 -8z"/>
<path d="M1670 1310 c0 -49 1 -50 30 -50 35 0 41 17 8 22 -13 2 -21 8 -18 13
2 6 10 9 16 7 7 -1 15 2 19 8 3 5 -3 10 -14 10 -11 0 -23 5 -26 10 -4 6 5 10
19 10 14 0 26 5 26 10 0 6 -13 10 -30 10 -29 0 -30 -1 -30 -50z"/>
<path d="M1761 1351 c-18 -12 -7 -41 19 -48 29 -8 24 -26 -5 -20 -16 3 -24 0
-22 -7 6 -17 42 -19 57 -1 10 12 10 18 0 30 -7 8 -19 15 -26 15 -8 0 -14 5
-14 11 0 7 9 9 21 6 13 -3 19 -1 16 6 -5 15 -28 19 -46 8z"/>
<path d="M2020 1300 c0 -17 -7 -20 -40 -20 -27 0 -42 5 -49 17 -11 21 -24 13
-15 -10 7 -19 24 -23 81 -18 38 3 43 6 43 27 0 13 -4 24 -10 24 -5 0 -10 -9
-10 -20z"/>
<path d="M950 1100 c0 -7 313 -10 920 -10 607 0 920 3 920 10 0 7 -313 10
-920 10 -607 0 -920 -3 -920 -10z"/>
</g>
</svg>
