<?xml version="1.0" standalone="no"?>
<!DOCTYPE svg PUBLIC "-//W3C//DTD SVG 20010904//EN"
 "http://www.w3.org/TR/2001/REC-SVG-20010904/DTD/svg10.dtd">
<svg version="1.0" xmlns="http://www.w3.org/2000/svg"
 width="300.000000pt" height="300.000000pt" viewBox="0 0 300.000000 300.000000"
 preserveAspectRatio="xMidYMid meet">
<metadata>
Created by potrace 1.10, written by Peter Selinger 2001-2011
</metadata>
<g transform="translate(0.000000,300.000000) scale(0.100000,-0.100000)"
fill="#FFFFFF" stroke="none">
<path d="M1940 2044 c-14 -2 -63 -9 -108 -15 l-84 -11 -217 -199 -218 -199 -6
-66 c-14 -142 -23 -128 234 -369 l227 -215 69 -10 c37 -5 88 -10 113 -10 l45
0 -55 31 c-30 18 -89 66 -130 108 -121 123 -173 245 -174 407 0 78 3 97 25
140 50 98 123 123 369 131 319 10 437 -21 493 -127 27 -51 28 -61 25 -151 -3
-85 -6 -100 -31 -137 l-27 -42 173 0 173 0 19 38 c23 47 32 191 16 273 -56
283 -284 415 -736 424 -93 2 -181 2 -195 -1z m404 -43 c8 -7 20 -10 25 -6 17
10 170 -35 236 -69 65 -34 160 -120 193 -177 27 -44 27 -53 5 -44 -14 5 -13 1
4 -14 12 -12 27 -38 32 -58 14 -48 14 -187 1 -232 -15 -54 -32 -60 -164 -61
l-118 0 7 33 c5 17 8 44 8 60 0 15 4 27 8 27 5 0 6 7 3 15 -4 8 -1 15 5 15 6
0 11 5 11 10 0 6 -7 10 -17 10 -15 0 -15 2 1 19 10 10 14 21 9 22 -5 2 -16 29
-26 59 -31 102 -116 160 -257 179 -41 5 -160 8 -265 6 -260 -5 -343 -32 -399
-128 -39 -68 -51 -151 -35 -249 8 -46 13 -90 12 -97 -1 -8 6 -20 14 -27 10 -6
14 -18 10 -28 -4 -9 -2 -16 4 -16 5 0 18 -17 27 -39 20 -44 56 -91 127 -163
50 -51 50 -67 2 -54 -23 6 -46 26 -241 209 -224 211 -223 210 -230 247 -4 19
-4 61 0 93 8 65 14 74 158 202 49 44 102 91 116 105 75 70 154 136 173 143 70
26 531 33 561 8z"/>
<path d="M178 1977 c31 -29 127 -118 212 -197 220 -206 262 -244 290 -263 l25
-18 -45 -37 c-34 -28 -396 -356 -550 -498 -12 -12 18 -14 193 -14 l207 0 190
181 190 181 188 -181 187 -181 234 0 c129 0 231 4 226 8 -6 5 -118 110 -250
233 -132 123 -265 246 -295 272 l-55 48 39 33 38 33 -53 7 c-108 13 -167 54
-375 258 l-191 188 -231 0 -231 0 57 -53z m397 10 c11 -7 91 -82 178 -167 161
-158 243 -222 310 -242 20 -6 37 -15 37 -20 0 -4 7 -8 17 -8 15 0 15 -2 -1
-19 -17 -18 -16 -20 1 -42 26 -32 46 -52 168 -164 115 -105 243 -225 307 -286
21 -20 38 -41 38 -47 0 -17 -328 -13 -360 4 -14 7 -97 83 -185 169 -88 86
-170 158 -182 161 -28 8 -40 -1 -186 -138 -67 -63 -146 -136 -175 -162 l-53
-47 -145 2 c-83 0 -144 5 -144 10 0 5 13 22 29 37 49 47 234 217 281 258 24
21 58 53 75 69 16 17 46 44 66 60 36 31 69 73 69 88 0 5 -31 40 -70 78 -38 37
-70 65 -70 62 0 -3 -7 0 -15 7 -8 7 -12 16 -9 21 3 5 2 9 -3 9 -11 0 -46 31
-200 177 -73 69 -133 130 -133 134 0 14 332 10 355 -4z"/>
<path d="M1113 1875 l-162 -155 32 -24 c66 -49 119 -69 197 -73 l75 -4 171
158 c94 87 194 179 223 206 l53 47 -213 0 -214 0 -162 -155z m487 115 c0 -5
-8 -18 -18 -27 -71 -69 -113 -103 -123 -103 -7 0 -9 -3 -6 -7 9 -9 -13 -34
-24 -27 -5 3 -13 -6 -19 -20 -5 -15 -13 -26 -17 -25 -23 4 -33 -3 -33 -22 0
-11 -4 -18 -9 -14 -5 3 -16 -4 -24 -15 -29 -42 -86 -71 -142 -71 -63 -1 -169
41 -163 65 3 16 111 130 206 219 l62 57 155 0 c97 0 155 -4 155 -10z"/>
<path d="M1911 1410 c1 -5 176 -136 222 -165 36 -23 36 -2 0 28 -63 51 -115
107 -102 108 12 1 154 0 264 -1 32 0 48 -8 80 -37 22 -19 56 -47 75 -62 35
-27 64 -50 105 -86 34 -31 63 -54 145 -119 73 -58 90 -74 90 -88 0 -4 -152 -6
-338 -5 -269 2 -342 5 -355 16 -10 8 -27 11 -42 7 -17 -4 -25 -2 -25 6 0 7
-19 21 -43 31 -42 17 -157 120 -157 141 0 7 46 11 138 11 129 1 202 9 189 22
-4 3 -83 9 -176 13 -157 6 -174 9 -221 33 l-52 27 23 -38 c72 -120 162 -205
279 -264 l65 -33 415 -3 c233 -1 410 1 405 6 -6 5 -132 108 -281 230 l-271
221 -216 3 c-120 2 -217 1 -216 -2z"/>
</g>
</svg>
